<svg xmlns="http://www.w3.org/2000/svg" xmlns:xlink="http://www.w3.org/1999/xlink" width="500" zoomAndPan="magnify" viewBox="0 0 375 374.999991" height="500" preserveAspectRatio="xMidYMid meet" version="1.0"><defs><clipPath id="id1"><path d="M 357 103 L 368.566406 103 L 368.566406 115 L 357 115 Z M 357 103 " clip-rule="nonzero"/></clipPath><clipPath id="id2"><path d="M 6.316406 37.5 L 270 37.5 L 270 335.25 L 6.316406 335.25 Z M 6.316406 37.5 " clip-rule="nonzero"/></clipPath></defs><path fill="#f14668" d="M 252.078125 92.324219 L 289.191406 92.324219 L 289.191406 129.441406 L 252.078125 129.441406 Z M 252.078125 92.324219 " fill-opacity="1" fill-rule="evenodd"/><path fill="#ffde59" d="M 288.363281 142.21875 L 316.820312 142.21875 L 316.820312 170.683594 L 288.363281 170.683594 Z M 288.363281 142.21875 " fill-opacity="1" fill-rule="evenodd"/><path fill="#f14668" d="M 318.058594 102.222656 L 341.148438 102.222656 L 341.148438 125.320312 L 318.058594 125.320312 Z M 318.058594 102.222656 " fill-opacity="1" fill-rule="evenodd"/><g clip-path="url(#id1)"><path fill="#ffde59" d="M 357.445312 103.664062 L 368.566406 103.664062 L 368.566406 114.796875 L 357.445312 114.796875 Z M 357.445312 103.664062 " fill-opacity="1" fill-rule="evenodd"/></g><path fill="#ffde59" d="M 337.648438 74.179688 L 351.25 74.179688 L 351.25 87.785156 L 337.648438 87.785156 Z M 337.648438 74.179688 " fill-opacity="1" fill-rule="evenodd"/><path fill="#f14668" d="M 320.945312 47.164062 L 332.078125 47.164062 L 332.078125 58.300781 L 320.945312 58.300781 Z M 320.945312 47.164062 " fill-opacity="1" fill-rule="evenodd"/><path fill="#ffffcc" d="M 351.871094 48.398438 L 355.996094 48.398438 L 355.996094 52.535156 L 351.871094 52.535156 Z M 351.871094 48.398438 " fill-opacity="1" fill-rule="evenodd"/><path fill="#ffde59" d="M 170.875 169.398438 C 170.875 151.394531 156.273438 136.789062 138.273438 136.789062 L 138.273438 81.304688 C 109.417969 106.644531 74.988281 124.777344 37.621094 133.761719 C 39.632812 172.828125 50.007812 212.792969 70.601562 246.125 C 86.160156 271.3125 109.234375 294.734375 138.273438 303.328125 L 138.273438 235.9375 L 174.425781 235.9375 L 158.722656 194.789062 C 166.304688 188.675781 170.875 179.390625 170.875 169.386719 Z M 127.4375 191.644531 C 119.203125 187.625 113.527344 179.175781 113.527344 169.398438 C 113.527344 155.734375 124.609375 144.648438 138.273438 144.648438 C 151.9375 144.648438 163.019531 155.734375 163.019531 169.398438 C 163.019531 179.175781 157.34375 187.625 149.109375 191.644531 L 150.640625 195.667969 L 163.019531 228.082031 L 113.527344 228.082031 L 125.894531 195.667969 Z M 127.4375 191.644531 " fill-opacity="1" fill-rule="evenodd"/><g clip-path="url(#id2)"><path fill="#f14668" d="M 138.273438 70.699219 C 165.152344 95.765625 197.414062 114.144531 232.699219 124.023438 L 232.699219 148.824219 L 245.628906 148.824219 C 241.925781 184.480469 231.3125 220.007812 212.621094 250.265625 C 195.578125 277.851562 170.242188 302.898438 138.261719 311.5 C 106.285156 302.898438 80.949219 277.84375 63.90625 250.265625 C 41.488281 213.984375 30.695312 170.101562 29.5 127.535156 C 70.375 118.953125 107.785156 99.121094 138.261719 70.699219 Z M 242.179688 126.453125 L 242.179688 102.671875 C 201.507812 92.027344 165.558594 68.933594 138.273438 37.5 C 104.90625 75.925781 58.601562 101.898438 6.539062 107.886719 C 6.398438 111.746094 6.328125 115.625 6.328125 119.535156 C 6.328125 228.792969 63.582031 319.320312 138.285156 335.230469 C 208.414062 320.296875 263.167969 239.570312 269.597656 139.332031 L 242.191406 139.332031 L 242.191406 126.453125 Z M 242.179688 126.453125 " fill-opacity="1" fill-rule="evenodd"/></g></svg>